<?xml version="1.0" encoding="utf-8"?>
<!-- Generator: Adobe Illustrator 27.7.0, SVG Export Plug-In . SVG Version: 6.00 Build 0)  -->
<svg version="1.1" id="Layer_1" xmlns="http://www.w3.org/2000/svg" xmlns:xlink="http://www.w3.org/1999/xlink" x="0px" y="0px"
	 viewBox="0 0 500 500" style="enable-background:new 0 0 500 500;" xml:space="preserve">
<style type="text/css">
	.st0{fill:#FFFFFF;}
</style>
<path class="st0" d="M12,0h476c6.6,0,12,2.8,12,6.2v37.6c0,3.4-5.4,6.2-12,6.2H12c-6.6,0-12-2.8-12-6.2V6.2C0,2.8,5.4,0,12,0z"/>
<path class="st0" d="M12,225h476c6.6,0,12,2.8,12,6.2v37.6c0,3.4-5.4,6.2-12,6.2H12c-6.6,0-12-2.8-12-6.2v-37.6
	C0,227.8,5.4,225,12,225z"/>
<path class="st0" d="M12,450h476c6.6,0,12,2.8,12,6.2v37.6c0,3.4-5.4,6.2-12,6.2H12c-6.6,0-12-2.8-12-6.2v-37.6
	C0,452.8,5.4,450,12,450z"/>
</svg>
