<?xml version="1.0" encoding="utf-8"?>
<!-- Generator: Adobe Illustrator 27.8.1, SVG Export Plug-In . SVG Version: 6.00 Build 0)  -->
<svg version="1.1" id="Layer_1" xmlns="http://www.w3.org/2000/svg" xmlns:xlink="http://www.w3.org/1999/xlink" x="0px" y="0px"
	 viewBox="0 0 1006 309" style="enable-background:new 0 0 1006 309;" xml:space="preserve">
<style type="text/css">
	.st0{fill:#FFFFFF;}
</style>
<path class="st0" d="M250,118c-12,43-50,73-95,74c-45-1-83-31-95-74c0,0,22,23,0,0c6,7,15,10,24,10s18-3,24-10c6,7,15,10,24,10
	s18-3,24-10c6,7,15,10,24,10s18-3,24-10c6,7,15,10,24,10S244,125,250,118 M251,96c0-53-43-96-96-96S59,43,59,96h86
	c-11-4-18-14-18-26c0-15,13-28,28-28s28,13,28,28c0,11-7,22-17,26H251 M161,309c2-82,66-153,148-156C309,236,244,304,161,309
	 M149,309c-2-82-66-153-149-156C1,236,66,304,149,309 M532,7H337v295h195v-46H398v-79h134v-47H398V52h134L532,7 M605,130h60
	c20,0,34-19,34-39c1-20-14-36-33-38h-56v249h-63V7h138c45,0,78,39,78,84s-33,86-78,86h-80V130 M700,302h66l29-78h120l-18-49h-85
	l42-112l87,239h65L889,7h-75L700,302"/>
</svg>
